<svg xmlns="http://www.w3.org/2000/svg" xmlns:xlink="http://www.w3.org/1999/xlink" viewBox="100 1.31 195.88 80.97">
    <defs>
        <clipPath id="a" transform="translate(0 17.31)">
            <path
                d="M137.54,3.26a8.82,8.82,0,0,0-4.41,7.63,10.08,10.08,0,0,0,1.39,4.74,3.42,3.42,0,0,1-1.25,4.79,3.54,3.54,0,0,1-4.77-1.31,10.13,10.13,0,0,0-3.41-3.57,8.81,8.81,0,1,0,0,15.27,10.12,10.12,0,0,0,3.41-3.57,3.43,3.43,0,0,1,4.78-1.31,3.54,3.54,0,0,1,1.25,4.79,10.13,10.13,0,0,0-1.39,4.74,8.81,8.81,0,1,0,13.22-7.63,10.25,10.25,0,0,0-4.83-1.17A3.43,3.43,0,0,1,138,23.17a3.53,3.53,0,0,1,3.48-3.48,10.18,10.18,0,0,0,4.83-1.17,8.81,8.81,0,1,0-8.81-15.26"
                style="fill:none" />
        </clipPath>
        <linearGradient id="b" x1="-192.75" y1="150.39" x2="-191.75" y2="150.39"
            gradientTransform="matrix(0, 57.2, -57.2, 0, 8733.29, 11019.53)" gradientUnits="userSpaceOnUse">
            <stop offset="0" stop-color="#1db4ff" />
            <stop offset="1" stop-color="#0f72e5" />
        </linearGradient>
    </defs>
    <title>Ripple_White_RGB</title>
    <path
        d="M186.76,4.22a4.32,4.32,0,1,0-4.32,4.22,4.23,4.23,0,0,0,4.32-4.22m-7.62,33.39h6.61V13h-6.61V37.61Zm-6.56-19.06a9.23,9.23,0,0,1,2.39.25l0.76-6.16a13.53,13.53,0,0,0-2.24-.2,9.22,9.22,0,0,0-7.17,3V13H160V37.61h6.61V23.8c0-2.9,3.1-5.24,6-5.24m32.68-6.1A11.28,11.28,0,0,0,198,14.94V13h-6.34V49.81h6.61V35.88a10.39,10.39,0,0,0,6.61,2.24A12.51,12.51,0,0,0,214.25,34a13.18,13.18,0,0,0,3.1-8.64c0-7.27-5.39-12.86-12.1-12.86m-0.8,19.67a6.47,6.47,0,0,1-6.8-6.79,6.47,6.47,0,0,1,6.8-6.79,6.58,6.58,0,0,1,6.35,6.79,6.58,6.58,0,0,1-6.35,6.79m46.39,5.49h6.61V1.53h-6.61V37.61Zm33.55-3.91a13.38,13.38,0,0,1-10.11,4.42c-7.37,0-12.91-5.08-12.91-12.81,0-6.86,4.68-12.86,12-12.86,6.81,0,11.64,5.75,11.64,12.61a10.67,10.67,0,0,1-.15,1.88H267.77a6.47,6.47,0,0,0,6.66,5.85,8.73,8.73,0,0,0,6.2-2.85Zm-6.15-11.59a4.91,4.91,0,0,0-4.88-4.32,5.35,5.35,0,0,0-5.29,4.32h10.17Zm-50.63-7.17a11.28,11.28,0,0,1,7.22-2.49c6.71,0,12.09,5.59,12.1,12.86a13.19,13.19,0,0,1-3.1,8.64,12.52,12.52,0,0,1-9.35,4.16,10.38,10.38,0,0,1-6.61-2.24V49.81h-6.61V13h6.34v2Zm-0.38,10.39a6.47,6.47,0,0,0,6.8,6.79,6.59,6.59,0,0,0,6.35-6.79A6.58,6.58,0,0,0,234,18.54a6.47,6.47,0,0,0-6.8,6.79"
        transform="translate(0 17.31)" style="fill:#fff;fill-rule:evenodd" />
    <g style="clip-path:url(#a)">
        <rect x="102.61" y="-5.43" width="57.39" height="57.2" transform="translate(25.27 121.33) rotate(-47.33)"
            style="fill:url(#b)" />
    </g>
</svg>